<svg xmlns="http://www.w3.org/2000/svg" width="151.671" height="56" viewBox="0 0 151.671 56"><defs><style>.a{fill:#036;}.b{fill:#196fad;}.c{fill:#ff7000;}</style></defs><g transform="translate(-40.3 -113.35)"><g transform="translate(70.657 147.568)"><g transform="translate(0)"><path class="a" d="M149.388,232.918v-7.626a5.641,5.641,0,0,0-1.971-4.427,7.791,7.791,0,0,0-5.2-1.616,9,9,0,0,0-5.428,1.551,4.889,4.889,0,0,0-2.133,4.071H140A1.671,1.671,0,0,1,141.908,223q2.068,0,2.068,2.391v.9h-1.648a10.493,10.493,0,0,0-6.01,1.422,4.75,4.75,0,0,0-2.068,4.233,4.688,4.688,0,0,0,1.713,3.716,6.018,6.018,0,0,0,4.136,1.486,5.067,5.067,0,0,0,4.136-1.874,7.056,7.056,0,0,0,.5,1.551V236.8h5.4v-.258a7.707,7.707,0,0,1-.743-3.619m-9.273-.048a1.605,1.605,0,0,1-.485-1.179q0-2.536,2.811-2.536h1.551V231.9a2.674,2.674,0,0,1-.937.969,2.855,2.855,0,0,1-1.68.436A1.889,1.889,0,0,1,140.115,232.869Z" transform="translate(-134.25 -219.25)"/></g></g><g transform="translate(88.638 147.6)"><g transform="translate(0)"><path class="a" d="M199.529,224.084a2.842,2.842,0,0,1,.517,1.906v10.938h5.4V225.812a7.729,7.729,0,0,0-1.389-4.847,5.006,5.006,0,0,0-4.039-1.616,5.864,5.864,0,0,0-4.911,2.326l-.162-2.036H189.9v17.238h5.412V224.7a2.509,2.509,0,0,1,2.31-1.228A2.375,2.375,0,0,1,199.529,224.084Z" transform="translate(-189.9 -219.35)"/></g></g><g transform="translate(106.216 147.568)"><path class="a" d="M259.519,224.872a4.825,4.825,0,0,0-2.068-4.071,8.978,8.978,0,0,0-5.493-1.551,7.956,7.956,0,0,0-5.121,1.551,4.737,4.737,0,0,0-1.987,3.91,4.132,4.132,0,0,0,.695,2.359,5.321,5.321,0,0,0,1.987,1.777,12.656,12.656,0,0,0,3.344,1.163,11.783,11.783,0,0,1,2.7.872,1.249,1.249,0,0,1,.711,1.1,1.5,1.5,0,0,1-.549,1.163,2.549,2.549,0,0,1-1.648.452,3.376,3.376,0,0,1-1.971-.549,2.063,2.063,0,0,1-.808-1.745H244.3a4.865,4.865,0,0,0,.969,2.876,6.472,6.472,0,0,0,2.714,2.165,10.385,10.385,0,0,0,9.37-.679,4.578,4.578,0,0,0,2.1-3.845q0-3.425-3.877-4.782a20.649,20.649,0,0,0-2.714-.679,6.925,6.925,0,0,1-2.23-.759,1.283,1.283,0,0,1-.711-1.147,1.468,1.468,0,0,1,.582-1.163,2.147,2.147,0,0,1,1.422-.485q2.2,0,2.2,2.068Z" transform="translate(-244.3 -219.25)"/></g><g transform="translate(122.743 147.875)"><g transform="translate(0 0)"><path class="a" d="M311.46,230.394,308.795,220.2h-3.748L302.3,230.6l-1.729-10.388H295.45l3.99,17.238H304l2.876-10.243,2.843,10.259h4.556l4.071-17.254h-5.121Z" transform="translate(-295.45 -220.2)"/></g></g><g transform="translate(147.026 147.552)"><g transform="translate(0 0)"><path class="a" d="M386.756,229.879v-2.1a8.9,8.9,0,0,0-2.1-6.317A7.5,7.5,0,0,0,378.9,219.2a8.618,8.618,0,0,0-4.459,1.115,7,7,0,0,0-2.876,3.134,10.434,10.434,0,0,0-.969,4.653v.452a8.168,8.168,0,0,0,2.456,6.172,8.894,8.894,0,0,0,6.43,2.359,10.767,10.767,0,0,0,3.974-.743,6.96,6.96,0,0,0,2.843-2.213l-2.456-2.908A4.747,4.747,0,0,1,379.873,233a3.836,3.836,0,0,1-2.52-.824,4.091,4.091,0,0,1-1.26-2.294h10.663m-5.267-3.829v.436h-5.428q.452-3.134,2.811-3.134a2.38,2.38,0,0,1,2.617,2.7Z" transform="translate(-370.6 -219.2)"/></g></g><g transform="translate(165.346 147.6)"><path class="a" d="M437.721,224.488l.065-4.944a5.077,5.077,0,0,0-1.486-.194,4.143,4.143,0,0,0-3.78,2.52l-.162-2.23H427.3v17.222h5.38V225.942q.711-1.583,3.263-1.583Z" transform="translate(-427.3 -219.35)"/></g><g transform="translate(176.769 147.568)"><path class="a" d="M477.853,224.872a4.825,4.825,0,0,0-2.068-4.071,8.891,8.891,0,0,0-5.493-1.551,7.956,7.956,0,0,0-5.121,1.551,4.737,4.737,0,0,0-1.987,3.91,4.132,4.132,0,0,0,.695,2.359,5.435,5.435,0,0,0,2,1.777,12.116,12.116,0,0,0,3.328,1.163,12.2,12.2,0,0,1,2.7.872,1.272,1.272,0,0,1,.727,1.1,1.532,1.532,0,0,1-.549,1.163,2.549,2.549,0,0,1-1.648.452,3.376,3.376,0,0,1-1.971-.549,2.063,2.063,0,0,1-.808-1.745H462.65a4.865,4.865,0,0,0,.969,2.876,6.472,6.472,0,0,0,2.714,2.165,10.385,10.385,0,0,0,9.37-.679,4.605,4.605,0,0,0,2.1-3.845q0-3.425-3.877-4.782a20.647,20.647,0,0,0-2.714-.679,6.925,6.925,0,0,1-2.229-.759,1.283,1.283,0,0,1-.711-1.147,1.483,1.483,0,0,1,.565-1.163,2.147,2.147,0,0,1,1.422-.485q2.2,0,2.2,2.068Z" transform="translate(-462.65 -219.25)"/></g><g transform="translate(64.098 163.966)"><g transform="translate(0)"><path class="b" d="M113.95,270.6q.016.226.582.42a4.487,4.487,0,0,0,1.422.21,4.27,4.27,0,0,0,1.438-.21q.582-.178.582-.42,0-.258-.582-.436a4.831,4.831,0,0,0-1.438-.162,5.387,5.387,0,0,0-1.422.162Q113.95,270.339,113.95,270.6Z" transform="translate(-113.95 -270)"/></g></g><g transform="translate(51.965 165.695)"><g transform="translate(0 0)"><path class="b" d="M82.458,279a13.725,13.725,0,0,0,4.314-.533q1.777-.566,1.777-1.26,0-.743-1.777-1.325a17.586,17.586,0,0,0-8.595,0q-1.777.517-1.777,1.325,0,.791,1.777,1.26A15.134,15.134,0,0,0,82.458,279Z" transform="translate(-76.4 -275.35)"/></g></g><g transform="translate(43.951 161.462)"><g transform="translate(0 0)"><path class="b" d="M55.607,264.69a10.405,10.405,0,0,0,2.843-.372q1.163-.307,1.163-.84,0-.469-1.163-.872a11.551,11.551,0,0,0-5.687,0q-1.163.388-1.163.872,0,.5,1.163.84A10.152,10.152,0,0,0,55.607,264.69Z" transform="translate(-51.6 -262.25)"/></g></g><g transform="translate(40.3 113.35)"><g transform="translate(0 0)"><path class="c" d="M45.777,121.137q.485-.582,1.066-1.163A15.911,15.911,0,0,1,67.07,118.1a.983.983,0,0,0,1.535-.953.873.873,0,0,0-.4-.63,16.952,16.952,0,0,0-10.146-3.167,17.248,17.248,0,0,0-12.6,5.234,14.625,14.625,0,0,0-1.163,1.292,17.213,17.213,0,0,0-3.99,11.277,17.754,17.754,0,0,0,1.519,7.367,16.073,16.073,0,0,0,.872,1.616q.323.549.743,1.131a11.211,11.211,0,0,0,.889,1.2,103.79,103.79,0,0,1,6.592,9.241l.032.032.065.129a57.8,57.8,0,0,1,6.075,15.671h1.906A60.792,60.792,0,0,1,65.018,151.9l.065-.129.032-.032a90.422,90.422,0,0,1,5.735-8.11.949.949,0,0,0,.194-.711.969.969,0,0,0-.388-.646.85.85,0,0,0-.695-.178.912.912,0,0,0-.646.372,90.092,90.092,0,0,0-5.9,8.3l-.065.162-.016.065a63,63,0,0,0-5.331,12.6,61.558,61.558,0,0,0-5.348-12.6l-.032-.065a.219.219,0,0,0-.065-.162,102.107,102.107,0,0,0-6.753-9.467l-.032-.032q-.081-.1-.808-1.1-.161-.226-.679-1.034-.436-.759-.743-1.422a15.538,15.538,0,0,1-1.357-6.559A15.079,15.079,0,0,1,45.777,121.137Z" transform="translate(-40.3 -113.35)"/></g></g><g transform="translate(52.304 117.13)"><path class="b" d="M89.292,136.375a4.667,4.667,0,0,0-1.519-3.587A6,6,0,0,0,83.7,131.5a6.527,6.527,0,0,0-4.184,1.357,3.949,3.949,0,0,0-1.7,3.167l1.7.016a2.732,2.732,0,0,1,1.163-2.2,4.645,4.645,0,0,1,2.94-.9,4.2,4.2,0,0,1,2.973.953,3.366,3.366,0,0,1,1,2.585v1.745h-3.07a8.929,8.929,0,0,0-5.2,1.309,4.115,4.115,0,0,0-1.874,3.554,4,4,0,0,0,1.373,3.118,5.136,5.136,0,0,0,3.587,1.244,7.11,7.11,0,0,0,2.94-.63A6.025,6.025,0,0,0,87.612,145a8.806,8.806,0,0,0,.323,2.149h1.826v-.178a8.942,8.942,0,0,1-.469-3.328v-7.27m-8.708,4.087a7.626,7.626,0,0,1,3.974-.937H87.6V142.9a4.777,4.777,0,0,1-1.939,2.2,5.767,5.767,0,0,1-3.053.824,3.625,3.625,0,0,1-2.488-.84,2.853,2.853,0,0,1,.469-4.621m14.46-8.676H92.491v1.389h2.553v13.975h1.7V133.176h3.667v-1.389H96.74v-1.906a3.576,3.576,0,0,1,.792-2.488,2.766,2.766,0,0,1,2.181-.872,7,7,0,0,1,1.551.162l.129-1.406a6.934,6.934,0,0,0-1.809-.226,4.389,4.389,0,0,0-3.344,1.26,5.057,5.057,0,0,0-1.2,3.619v1.858m42.377,0h-1.713v15.364h1.713V131.787m-2-4.427a1.107,1.107,0,0,0,.307.792,1.157,1.157,0,0,0,.856.323,1.213,1.213,0,0,0,.872-.323,1.107,1.107,0,0,0,.307-.792,1.185,1.185,0,0,0-.307-.824,1.213,1.213,0,0,0-.872-.323,1.157,1.157,0,0,0-.856.323,1.185,1.185,0,0,0-.307.824m12.424,4.427h-3.167v-3.926h-1.713v3.926h-2.827v1.389h2.827v10.259a4.8,4.8,0,0,0,.792,2.989,3.062,3.062,0,0,0,2.553,1.018,5.429,5.429,0,0,0,1.809-.242l-.065-1.389-1.373.145a1.782,1.782,0,0,1-1.535-.614,3.187,3.187,0,0,1-.469-1.906V133.176h3.167v-1.389m-32.893,0h-1.713v15.364h1.713V131.787m.032-3.635a1.107,1.107,0,0,0,.307-.792,1.185,1.185,0,0,0-.307-.824,1.213,1.213,0,0,0-.872-.323,1.157,1.157,0,0,0-.856.323,1.185,1.185,0,0,0-.307.824,1.107,1.107,0,0,0,.307.792,1.157,1.157,0,0,0,.856.323,1.213,1.213,0,0,0,.872-.323m-4.96,3.635h-3.667v-1.906a3.576,3.576,0,0,1,.792-2.488,2.766,2.766,0,0,1,2.181-.872,7,7,0,0,1,1.551.162l.129-1.406a6.934,6.934,0,0,0-1.809-.226,4.389,4.389,0,0,0-3.344,1.26,5.057,5.057,0,0,0-1.2,3.619v1.858H102.1v1.389h2.553v13.975h1.7V133.176h3.667v-1.389m16.22-.291a5.541,5.541,0,0,0-2.86.759,6,6,0,0,0-2.149,2.165l-.065-2.633h-1.616v15.364h1.7V136.634a5.774,5.774,0,0,1,1.793-2.666,4.3,4.3,0,0,1,2.795-.986,3.456,3.456,0,0,1,2.746,1,4.74,4.74,0,0,1,.872,3.07v10.1h1.68V137.07a6.308,6.308,0,0,0-1.212-4.168,4.6,4.6,0,0,0-3.684-1.406m36.318.291h-1.842l-4.475,12.925-4.782-12.925H149.6l5.8,15.219v.016l-.388,1.034q-.129.339-.258.646-.1.21-.178.388-.113.194-.226.372a3.573,3.573,0,0,1-.339.436,2.615,2.615,0,0,1-.307.291,3.027,3.027,0,0,1-.6.355,3.7,3.7,0,0,1-.872.226.6.6,0,0,1-.145.016h-1.115v1.535h1.2a3.916,3.916,0,0,0,3.3-1.777q.194-.291.388-.646a3.984,3.984,0,0,0,.178-.372Z" transform="translate(-77.45 -125.05)"/></g></g></svg>